<svg version="1.2" baseProfile="tiny" id="EdgeSVG_JQvDH" x="0px" y="0px" width="217.902px" height="118.434px" viewBox="0 0 217.902 118.434" xmlns:xlink="http://www.w3.org/1999/xlink" xmlns="http://www.w3.org/2000/svg">
  <linearGradient id="SVGID_2_" gradientUnits="userSpaceOnUse" x1="42.9341" y1="9.8809" x2="42.9341" y2="104.7998">
    <stop offset="0" style="stop-color:#FFFFFF;stop-opacity:0.05"/>
    <stop offset="0.0166" style="stop-color:#FFFFFF;stop-opacity:0.2"/>
    <stop offset="0.1026" style="stop-color:#FFFFFF;stop-opacity:0.45"/>
    <stop offset="0.2615" style="stop-color:#FFFFFF;stop-opacity:0.25"/>
    <stop offset="0.7225" style="stop-color:#000000;stop-opacity:0.1"/>
    <stop offset="1" style="stop-color:#000000;stop-opacity:0.4"/>
  </linearGradient>
  <polygon fill="url(#SVGID_2_)" points="50.252,9.881 50.252,104.799 35.616,103.265 35.616,11.415 &#x9;"/>
  <linearGradient id="SVGID_3_" gradientUnits="userSpaceOnUse" x1="18.3081" y1="3.7246" x2="18.3081" y2="110.9336">
    <stop offset="0" style="stop-color:#FFFFFF;stop-opacity:0.05"/>
    <stop offset="0.0166" style="stop-color:#FFFFFF;stop-opacity:0.2"/>
    <stop offset="0.1026" style="stop-color:#FFFFFF;stop-opacity:0.45"/>
    <stop offset="0.2615" style="stop-color:#FFFFFF;stop-opacity:0.25"/>
    <stop offset="0.7225" style="stop-color:#000000;stop-opacity:0.1"/>
    <stop offset="1" style="stop-color:#000000;stop-opacity:0.4"/>
  </linearGradient>
  <path fill="url(#SVGID_3_)" d="M35.616,5.285v104.09c0,0-17.373,3.648-23.914-0.22C5.162,105.291,1,102.103,1,57.34v-0.021&#xD;&#xA;&#x9;&#x9;C1,12.553,5.162,9.37,11.703,5.501C18.243,1.634,35.616,5.285,35.616,5.285z"/>
  <g>
    <linearGradient id="SVGID_4_" gradientUnits="userSpaceOnUse" x1="162.9341" y1="9.8809" x2="162.9341" y2="104.7998">
      <stop offset="0" style="stop-color:#FFFFFF;stop-opacity:0.05"/>
      <stop offset="0.0166" style="stop-color:#FFFFFF;stop-opacity:0.2"/>
      <stop offset="0.1026" style="stop-color:#FFFFFF;stop-opacity:0.45"/>
      <stop offset="0.2615" style="stop-color:#FFFFFF;stop-opacity:0.25"/>
      <stop offset="0.7225" style="stop-color:#000000;stop-opacity:0.1"/>
      <stop offset="1" style="stop-color:#000000;stop-opacity:0.4"/>
    </linearGradient>
    <path fill="url(#SVGID_4_)" d="M181.625,13.959v86.762c0,0.606-0.402,1.105-0.892,1.105l-36.49,2.973V9.881l36.49,2.973&#xD;&#xA;&#x9;&#x9;&#x9;C181.223,12.854,181.625,13.35,181.625,13.959z"/>
    <linearGradient id="SVGID_5_" gradientUnits="userSpaceOnUse" x1="51.3418" y1="8.2368" x2="51.3418" y2="106.625">
      <stop offset="0" style="stop-color:#FFFFFF;stop-opacity:0.05"/>
      <stop offset="0.0166" style="stop-color:#FFFFFF;stop-opacity:0.2"/>
      <stop offset="0.1026" style="stop-color:#FFFFFF;stop-opacity:0.45"/>
      <stop offset="0.2615" style="stop-color:#FFFFFF;stop-opacity:0.25"/>
      <stop offset="0.7225" style="stop-color:#000000;stop-opacity:0.1"/>
      <stop offset="1" style="stop-color:#000000;stop-opacity:0.4"/>
    </linearGradient>
    <path fill="url(#SVGID_5_)" d="M52.432,8.237v98.388c0,0,0-1.825-2.18-1.825V9.866C52.432,9.866,52.432,8.237,52.432,8.237z"/>
    <linearGradient id="SVGID_6_" gradientUnits="userSpaceOnUse" x1="143.1538" y1="8.2368" x2="143.1538" y2="106.625">
      <stop offset="0" style="stop-color:#FFFFFF;stop-opacity:0.05"/>
      <stop offset="0.0166" style="stop-color:#FFFFFF;stop-opacity:0.2"/>
      <stop offset="0.1026" style="stop-color:#FFFFFF;stop-opacity:0.45"/>
      <stop offset="0.2615" style="stop-color:#FFFFFF;stop-opacity:0.25"/>
      <stop offset="0.7225" style="stop-color:#000000;stop-opacity:0.1"/>
      <stop offset="1" style="stop-color:#000000;stop-opacity:0.4"/>
    </linearGradient>
    <path fill="url(#SVGID_6_)" d="M144.243,9.866v94.934c-2.179,0-2.179,1.825-2.179,1.825V8.237&#xD;&#xA;&#x9;&#x9;&#x9;C142.064,8.237,142.064,9.866,144.243,9.866z"/>
  </g>
  <linearGradient id="SVGID_7_" gradientUnits="userSpaceOnUse" x1="144.2432" y1="57.3403" x2="181.625" y2="57.3403">
    <stop offset="0.9593" style="stop-color:#000000;stop-opacity:0"/>
    <stop offset="1" style="stop-color:#000000;stop-opacity:0.25"/>
  </linearGradient>
  <path fill="url(#SVGID_7_)" d="M181.625,13.959v86.762c0,0.606-0.402,1.105-0.892,1.105l-36.49,2.973V9.881l36.49,2.973&#xD;&#xA;&#x9;&#x9;C181.223,12.854,181.625,13.35,181.625,13.959z"/>
  <linearGradient id="SVGID_8_" gradientUnits="userSpaceOnUse" x1="50.252" y1="57.4302" x2="52.4316" y2="57.4302">
    <stop offset="0" style="stop-color:#000000;stop-opacity:0"/>
    <stop offset="1" style="stop-color:#000000;stop-opacity:0.25"/>
  </linearGradient>
  <path fill="url(#SVGID_8_)" d="M52.432,8.237v98.388c0,0,0-1.825-2.18-1.825V9.866C52.432,9.866,52.432,8.237,52.432,8.237z"/>
  <linearGradient id="SVGID_9_" gradientUnits="userSpaceOnUse" x1="144.2432" y1="57.4302" x2="142.0645" y2="57.4302">
    <stop offset="0" style="stop-color:#000000;stop-opacity:0"/>
    <stop offset="1" style="stop-color:#000000;stop-opacity:0.25"/>
  </linearGradient>
  <path fill="url(#SVGID_9_)" d="M144.243,9.866v94.934c-2.179,0-2.179,1.825-2.179,1.825V8.237&#xD;&#xA;&#x9;&#x9;C142.064,8.237,142.064,9.866,144.243,9.866z"/>
  <linearGradient id="SVGID_10_" gradientUnits="userSpaceOnUse" x1="82.1841" y1="108.1802" x2="112.3115" y2="108.1802">
    <stop offset="0.1176" style="stop-color:#FFFFFF;stop-opacity:0.25"/>
    <stop offset="1" style="stop-color:#FFFFFF;stop-opacity:0.1"/>
  </linearGradient>
  <path fill="url(#SVGID_10_)" d="M112.312,104.425v7.509H82.184v-2.227h26.426c1.665,0,3.184-1.236,3.38-2.756L112.312,104.425z"/>
  <path fill="#D4145A" d="M137.866,90.336c0.006,0.009,0.021,0.015,0.039,0.015h-0.024C137.872,90.348,137.866,90.342,137.866,90.336&#xD;&#xA;&#x9;&#x9;z"/>
  <linearGradient id="SVGID_11_" gradientUnits="userSpaceOnUse" x1="97.248" y1="1.0005" x2="97.248" y2="12.2891">
    <stop offset="0" style="stop-color:#FFFFFF;stop-opacity:0.35"/>
    <stop offset="0.0241" style="stop-color:#FFFFFF;stop-opacity:0.4"/>
    <stop offset="0.0498" style="stop-color:#FFFFFF;stop-opacity:0.3"/>
    <stop offset="0.0562" style="stop-color:#E5E5E5;stop-opacity:0.2843"/>
    <stop offset="0.0774" style="stop-color:#959595;stop-opacity:0.2321"/>
    <stop offset="0.0963" style="stop-color:#555555;stop-opacity:0.1857"/>
    <stop offset="0.1121" style="stop-color:#272727;stop-opacity:0.1469"/>
    <stop offset="0.1242" style="stop-color:#0B0B0B;stop-opacity:0.1171"/>
    <stop offset="0.1312" style="stop-color:#000000;stop-opacity:0.1"/>
    <stop offset="0.5673" style="stop-color:#000000;stop-opacity:0.0574"/>
    <stop offset="0.6425" style="stop-color:#000000;stop-opacity:0.05"/>
    <stop offset="0.8462" style="stop-color:#FFFFFF;stop-opacity:0.2"/>
    <stop offset="1" style="stop-color:#FFFFFF;stop-opacity:0.25"/>
  </linearGradient>
  <path fill="url(#SVGID_11_)" d="M142.064,10.004v2.253c0,0.235-0.65-0.874-1.44-2.277c-0.57-1.008-1.212-2.17-1.734-3.087&#xD;&#xA;&#x9;&#x9;c-0.534-0.932-0.943-1.608-1.024-1.608H56.629c-0.082,0-0.49,0.676-1.024,1.608c-0.521,0.917-1.164,2.079-1.734,3.087&#xD;&#xA;&#x9;&#x9;c-0.79,1.403-1.439,2.513-1.439,2.277v-2.253c0-0.169,0.556-1.224,1.265-2.518c0.229-0.419,0.475-0.865,0.723-1.311&#xD;&#xA;&#x9;&#x9;c1.091-1.977,2.226-4.019,2.226-4.252c0-0.451,0-0.451,0-0.905C56.645,1.006,56.642,1,56.636,1h81.223&#xD;&#xA;&#x9;&#x9;c-0.005,0-0.009,0.005-0.009,0.018c0,0.454,0,0.454,0,0.905c0,0.234,1.135,2.275,2.227,4.252c0.248,0.446,0.493,0.892,0.722,1.311&#xD;&#xA;&#x9;&#x9;C141.508,8.781,142.064,9.835,142.064,10.004z"/>
  <linearGradient id="SVGID_12_" gradientUnits="userSpaceOnUse" x1="97.248" y1="5.2852" x2="97.248" y2="17.7476">
    <stop offset="0" style="stop-color:#FFFFFF;stop-opacity:0.3"/>
    <stop offset="0.0241" style="stop-color:#FFFFFF;stop-opacity:0.35"/>
    <stop offset="0.0709" style="stop-color:#FFFFFF;stop-opacity:0.3"/>
    <stop offset="0.0807" style="stop-color:#E5E5E5;stop-opacity:0.2882"/>
    <stop offset="0.1134" style="stop-color:#959595;stop-opacity:0.249"/>
    <stop offset="0.1424" style="stop-color:#555555;stop-opacity:0.2143"/>
    <stop offset="0.1667" style="stop-color:#272727;stop-opacity:0.1852"/>
    <stop offset="0.1854" style="stop-color:#0B0B0B;stop-opacity:0.1629"/>
    <stop offset="0.1961" style="stop-color:#000000;stop-opacity:0.15"/>
    <stop offset="0.5949" style="stop-color:#000000;stop-opacity:0.1074"/>
    <stop offset="0.6637" style="stop-color:#000000;stop-opacity:0.1"/>
    <stop offset="0.8763" style="stop-color:#FFFFFF;stop-opacity:0.2"/>
    <stop offset="1" style="stop-color:#FFFFFF;stop-opacity:0.2"/>
  </linearGradient>
  <path fill="url(#SVGID_12_)" d="M142.064,14.663v3.039c0,0.366-1.471-1.541-2.675-3.039c-0.735-0.913-1.369-1.675-1.509-1.675&#xD;&#xA;&#x9;&#x9;H56.616c-0.14,0-0.775,0.762-1.509,1.675c-1.204,1.498-2.675,3.405-2.675,3.039v-3.039c0-0.165,0.316-0.81,0.778-1.675&#xD;&#xA;&#x9;&#x9;c0.464-0.874,1.076-1.965,1.653-3.008c0.703-1.271,1.356-2.463,1.637-3.087c0.093-0.208,0.146-0.352,0.146-0.416&#xD;&#xA;&#x9;&#x9;c0-0.581,0-0.581,0-1.161c0-0.021-0.005-0.031-0.016-0.031h81.237c-0.011,0-0.016,0.009-0.016,0.031c0,0.581,0,0.581,0,1.161&#xD;&#xA;&#x9;&#x9;c0,0.064,0.052,0.208,0.146,0.416c0.28,0.624,0.934,1.815,1.637,3.087c0.577,1.043,1.189,2.134,1.653,3.008&#xD;&#xA;&#x9;&#x9;C141.747,13.853,142.064,14.498,142.064,14.663z"/>
  <linearGradient id="SVGID_13_" gradientUnits="userSpaceOnUse" x1="97.248" y1="12.9878" x2="97.248" y2="25.8877">
    <stop offset="0" style="stop-color:#FFFFFF;stop-opacity:0.35"/>
    <stop offset="0.0241" style="stop-color:#FFFFFF;stop-opacity:0.25"/>
    <stop offset="0.0875" style="stop-color:#FFFFFF;stop-opacity:0.25"/>
    <stop offset="0.096" style="stop-color:#E5E5E5;stop-opacity:0.2461"/>
    <stop offset="0.1244" style="stop-color:#959595;stop-opacity:0.233"/>
    <stop offset="0.1496" style="stop-color:#555555;stop-opacity:0.2214"/>
    <stop offset="0.1706" style="stop-color:#272727;stop-opacity:0.2117"/>
    <stop offset="0.1868" style="stop-color:#0B0B0B;stop-opacity:0.2043"/>
    <stop offset="0.1961" style="stop-color:#000000;stop-opacity:0.2"/>
    <stop offset="0.4225" style="stop-color:#000000;stop-opacity:0.1147"/>
    <stop offset="0.4615" style="stop-color:#000000;stop-opacity:0.1"/>
    <stop offset="0.6139" style="stop-color:#FFFFFF;stop-opacity:0.15"/>
    <stop offset="1" style="stop-color:#FFFFFF;stop-opacity:0.15"/>
  </linearGradient>
  <path fill="url(#SVGID_13_)" d="M142.064,20.749v5.074c0,0.592-3.663-3.078-4.158-3.078H56.59c-0.496,0-4.158,3.67-4.158,3.078&#xD;&#xA;&#x9;&#x9;v-5.074c0-0.544,3.226-4.661,4.033-6.086c0.114-0.205,0.18-0.352,0.18-0.428c0-0.602,0-0.602,0-1.204&#xD;&#xA;&#x9;&#x9;c0-0.03-0.01-0.043-0.029-0.043h81.264c-0.019,0-0.029,0.013-0.029,0.043c0,0.602,0,0.602,0,1.204c0,0.076,0.066,0.223,0.18,0.428&#xD;&#xA;&#x9;&#x9;C138.838,16.087,142.064,20.205,142.064,20.749z"/>
  <linearGradient id="SVGID_14_" gradientUnits="userSpaceOnUse" x1="97.248" y1="22.7446" x2="97.248" y2="34.9902">
    <stop offset="0" style="stop-color:#FFFFFF;stop-opacity:0.35"/>
    <stop offset="0.0241" style="stop-color:#FFFFFF;stop-opacity:0.2"/>
    <stop offset="0.0875" style="stop-color:#FFFFFF;stop-opacity:0.2"/>
    <stop offset="0.096" style="stop-color:#E5E5E5;stop-opacity:0.2039"/>
    <stop offset="0.1244" style="stop-color:#959595;stop-opacity:0.217"/>
    <stop offset="0.1496" style="stop-color:#555555;stop-opacity:0.2286"/>
    <stop offset="0.1706" style="stop-color:#272727;stop-opacity:0.2383"/>
    <stop offset="0.1868" style="stop-color:#0B0B0B;stop-opacity:0.2457"/>
    <stop offset="0.1961" style="stop-color:#000000;stop-opacity:0.25"/>
    <stop offset="0.4714" style="stop-color:#000000;stop-opacity:0.0794"/>
    <stop offset="0.5189" style="stop-color:#000000;stop-opacity:0.05"/>
    <stop offset="0.5596" style="stop-color:#000000;stop-opacity:0"/>
    <stop offset="0.5611" style="stop-color:#FFFFFF;stop-opacity:0"/>
    <stop offset="0.6078" style="stop-color:#FFFFFF;stop-opacity:0.1"/>
    <stop offset="1" style="stop-color:#FFFFFF;stop-opacity:0.1"/>
  </linearGradient>
  <path fill="url(#SVGID_14_)" d="M142.064,28.97v5.923c0,0.59-3.424-1.721-4.1-1.721H56.53c-0.675,0-4.099,2.311-4.099,1.721V28.97&#xD;&#xA;&#x9;&#x9;c0-0.636,4.213-4.31,4.213-4.927c0-0.621,0-0.621,0-1.238c0-0.042-0.019-0.061-0.055-0.061h81.316&#xD;&#xA;&#x9;&#x9;c-0.037,0-0.056,0.018-0.056,0.061c0,0.618,0,0.618,0,1.238C137.851,24.661,142.064,28.334,142.064,28.97z"/>
  <path fill="#D4145A" d="M137.905,90.351h-0.024c-0.009-0.003-0.015-0.009-0.015-0.015&#xD;&#xA;&#x9;&#x9;C137.872,90.345,137.888,90.351,137.905,90.351z"/>
  <path fill="#D4145A" d="M137.866,90.336c0.006,0.009,0.021,0.015,0.039,0.015h-0.024C137.872,90.348,137.866,90.342,137.866,90.336&#xD;&#xA;&#x9;&#x9;z"/>
  <path fill="#D4145A" d="M137.905,90.351h-0.024c-0.009-0.003-0.015-0.009-0.015-0.015&#xD;&#xA;&#x9;&#x9;C137.872,90.345,137.888,90.351,137.905,90.351z"/>
  <path fill="#D4145A" d="M137.905,90.351h-0.024c-0.009-0.003-0.015-0.009-0.015-0.015&#xD;&#xA;&#x9;&#x9;C137.872,90.345,137.888,90.351,137.905,90.351z"/>
  <path fill="#D4145A" d="M137.905,90.351h-0.024c-0.009-0.003-0.015-0.009-0.015-0.015&#xD;&#xA;&#x9;&#x9;C137.872,90.345,137.888,90.351,137.905,90.351z"/>
  <path fill="#006092" d="M56.629,90.336v0.003c-0.003,0.006-0.009,0.009-0.015,0.012H56.59&#xD;&#xA;&#x9;&#x9;C56.608,90.351,56.623,90.345,56.629,90.336z"/>
  <linearGradient id="SVGID_15_" gradientUnits="userSpaceOnUse" x1="97.248" y1="33.1733" x2="97.248" y2="44.8823">
    <stop offset="0" style="stop-color:#FFFFFF;stop-opacity:0.35"/>
    <stop offset="0.0241" style="stop-color:#FFFFFF;stop-opacity:0.15"/>
    <stop offset="0.0875" style="stop-color:#FFFFFF;stop-opacity:0.15"/>
    <stop offset="0.096" style="stop-color:#E5E5E5;stop-opacity:0.1618"/>
    <stop offset="0.1244" style="stop-color:#959595;stop-opacity:0.201"/>
    <stop offset="0.1496" style="stop-color:#555555;stop-opacity:0.2357"/>
    <stop offset="0.1706" style="stop-color:#272727;stop-opacity:0.2648"/>
    <stop offset="0.1868" style="stop-color:#0B0B0B;stop-opacity:0.2871"/>
    <stop offset="0.1961" style="stop-color:#000000;stop-opacity:0.3"/>
    <stop offset="0.4919" style="stop-color:#000000;stop-opacity:0.0868"/>
    <stop offset="0.543" style="stop-color:#000000;stop-opacity:0.05"/>
    <stop offset="0.5837" style="stop-color:#000000;stop-opacity:0"/>
    <stop offset="0.5867" style="stop-color:#FFFFFF;stop-opacity:0"/>
    <stop offset="0.6652" style="stop-color:#FFFFFF;stop-opacity:0.05"/>
    <stop offset="1" style="stop-color:#FFFFFF;stop-opacity:0.05"/>
  </linearGradient>
  <path fill="url(#SVGID_15_)" d="M142.064,38.052v6.659c0,0.532-2.696-0.348-3.776-0.39c-0.056-0.003-0.11-0.003-0.158,0H111.99&#xD;&#xA;&#x9;&#x9;c-0.023-0.154-0.057-0.306-0.104-0.448c-0.405-1.303-1.778-2.305-3.276-2.305H62.399c-1.498,0-2.875,1.002-3.276,2.305&#xD;&#xA;&#x9;&#x9;c-0.047,0.143-0.083,0.294-0.098,0.448h-2.661c-0.047-0.003-0.101-0.003-0.157,0c-0.425,0.018-1.103,0.163-1.766,0.3&#xD;&#xA;&#x9;&#x9;c-0.146,0.03-0.289,0.06-0.431,0.09c-0.3,0.06-0.586,0.113-0.829,0.143c-0.021,0.003-0.042,0.006-0.063,0.006&#xD;&#xA;&#x9;&#x9;c-0.021,0.003-0.039,0.006-0.06,0.006c-0.083,0.006-0.157,0.012-0.226,0.012h-0.016c-0.068,0-0.13-0.003-0.181-0.012&#xD;&#xA;&#x9;&#x9;c-0.015,0-0.027-0.003-0.039-0.009c-0.006,0.003-0.012,0-0.018-0.003c-0.006,0-0.012,0-0.018-0.003&#xD;&#xA;&#x9;&#x9;c-0.006-0.003-0.012-0.003-0.018-0.006c-0.009-0.003-0.015-0.006-0.023-0.012c-0.015-0.007-0.03-0.015-0.039-0.024&#xD;&#xA;&#x9;&#x9;c-0.009-0.009-0.018-0.015-0.023-0.023c-0.018-0.021-0.026-0.045-0.026-0.074v-6.659c0-0.651,4.212-2.896,4.212-3.529&#xD;&#xA;&#x9;&#x9;c0-0.63,0-0.63,0-1.264c0-0.06-0.041-0.086-0.112-0.086h81.434c-0.071,0-0.113,0.026-0.113,0.086c0,0.634,0,0.634,0,1.264&#xD;&#xA;&#x9;&#x9;C137.852,35.157,142.064,37.401,142.064,38.052z"/>
  <linearGradient id="SVGID_16_" gradientUnits="userSpaceOnUse" x1="97.248" y1="44.3218" x2="97.248" y2="54.9888">
    <stop offset="0" style="stop-color:#FFFFFF;stop-opacity:0.25"/>
    <stop offset="0.0241" style="stop-color:#FFFFFF;stop-opacity:0.1"/>
    <stop offset="0.0995" style="stop-color:#FFFFFF;stop-opacity:0.1"/>
    <stop offset="0.1078" style="stop-color:#E5E5E5;stop-opacity:0.1197"/>
    <stop offset="0.1354" style="stop-color:#959595;stop-opacity:0.1849"/>
    <stop offset="0.1599" style="stop-color:#555555;stop-opacity:0.2429"/>
    <stop offset="0.1804" style="stop-color:#272727;stop-opacity:0.2914"/>
    <stop offset="0.1961" style="stop-color:#0B0B0B;stop-opacity:0.3286"/>
    <stop offset="0.2051" style="stop-color:#000000;stop-opacity:0.35"/>
    <stop offset="0.4061" style="stop-color:#000000;stop-opacity:0.1219"/>
    <stop offset="0.4253" style="stop-color:#000000;stop-opacity:0.1"/>
    <stop offset="0.816" style="stop-color:#000000;stop-opacity:0"/>
    <stop offset="0.9231" style="stop-color:#FFFFFF;stop-opacity:0"/>
  </linearGradient>
  <path fill="url(#SVGID_16_)" d="M59.025,44.322c0,0.003,0,0.003,0,0.006l-1.329,10.661h-5.265v-6.903&#xD;&#xA;&#x9;&#x9;c0-0.071,0.05-0.148,0.14-0.226c0.026-0.027,0.053-0.048,0.086-0.071c0.065-0.048,0.14-0.096,0.226-0.144&#xD;&#xA;&#x9;&#x9;c0.042-0.026,0.087-0.05,0.134-0.074c0.047-0.023,0.095-0.05,0.149-0.074c0.077-0.038,0.157-0.077,0.24-0.112&#xD;&#xA;&#x9;&#x9;c0.226-0.104,0.479-0.205,0.737-0.31c0.229-0.092,0.461-0.182,0.69-0.273c0.324-0.131,0.642-0.259,0.916-0.384&#xD;&#xA;&#x9;&#x9;c0.057-0.026,0.11-0.05,0.161-0.074c0.05-0.023,0.101-0.05,0.149-0.074c0.354-0.182,0.585-0.351,0.585-0.503&#xD;&#xA;&#x9;&#x9;c0-0.642,0-0.642,0-1.287c0-0.035-0.015-0.064-0.041-0.089c-0.006-0.009-0.018-0.018-0.033-0.023&#xD;&#xA;&#x9;&#x9;c-0.047-0.027-0.119-0.042-0.205-0.045H59.025z M137.852,45.766c0-0.642,0-0.642,0-1.283c0-0.102,0.104-0.152,0.279-0.161H111.99&#xD;&#xA;&#x9;&#x9;c0,0.003,0,0.003,0,0.006l1.353,10.661h28.722v-6.9C142.064,47.425,137.852,46.409,137.852,45.766z"/>
  <linearGradient id="SVGID_17_" gradientUnits="userSpaceOnUse" x1="138.2993" y1="56.1685" x2="138.2993" y2="56.2671">
    <stop offset="0" style="stop-color:#FFFFFF;stop-opacity:0.05"/>
    <stop offset="0.0315" style="stop-color:#FFFFFF;stop-opacity:0.0941"/>
    <stop offset="0.2142" style="stop-color:#FFFFFF;stop-opacity:0.35"/>
    <stop offset="0.3122" style="stop-color:#FFFFFF;stop-opacity:0.1"/>
    <stop offset="0.6275" style="stop-color:#000000;stop-opacity:0"/>
    <stop offset="0.7421" style="stop-color:#000000;stop-opacity:0.35"/>
    <stop offset="0.9774" style="stop-color:#000000;stop-opacity:0.1219"/>
    <stop offset="1" style="stop-color:#000000;stop-opacity:0.1"/>
  </linearGradient>
  <path fill="url(#SVGID_17_)" d="M138.182,56.267c0.068-0.033,0.148-0.065,0.235-0.099C138.33,56.199,138.253,56.231,138.182,56.267&#xD;&#xA;&#x9;&#x9;z"/>
  <path fill="#006092" d="M56.629,90.336v0.003c-0.003,0.006-0.009,0.009-0.015,0.012H56.59&#xD;&#xA;&#x9;&#x9;C56.608,90.351,56.623,90.345,56.629,90.336z"/>
  <path fill="#006092" d="M56.177,78.084c-0.015-0.192-0.027-0.398-0.036-0.605C56.153,77.686,56.162,77.889,56.177,78.084z"/>
  <path fill="#006092" d="M56.629,90.336v0.003c-0.003,0.006-0.009,0.009-0.015,0.012H56.59&#xD;&#xA;&#x9;&#x9;C56.608,90.351,56.623,90.345,56.629,90.336z"/>
  <path fill="#006092" d="M56.629,90.336v0.003c-0.003,0.006-0.009,0.009-0.015,0.012H56.59&#xD;&#xA;&#x9;&#x9;C56.608,90.351,56.623,90.345,56.629,90.336z"/>
  <linearGradient id="SVGID_18_" gradientUnits="userSpaceOnUse" x1="52.4316" y1="102.3228" x2="142.0645" y2="102.3228">
    <stop offset="0" style="stop-color:#000000;stop-opacity:0.25"/>
    <stop offset="0.0151" style="stop-color:#000000;stop-opacity:0"/>
    <stop offset="0.9849" style="stop-color:#000000;stop-opacity:0"/>
    <stop offset="1" style="stop-color:#000000;stop-opacity:0.25"/>
  </linearGradient>
  <path fill="url(#SVGID_18_)" d="M142.064,87.277v30.157H52.432V87.277c0-0.059,0.038-0.077,0.106-0.056&#xD;&#xA;&#x9;&#x9;c0.021,0.002,0.042,0.012,0.063,0.023c0.045,0.021,0.098,0.051,0.161,0.089c0.03,0.019,0.063,0.039,0.095,0.063&#xD;&#xA;&#x9;&#x9;c0.375,0.256,0.945,0.743,1.534,1.252c0.11,0.095,0.22,0.19,0.327,0.282c0.146,0.128,0.291,0.253,0.431,0.371&#xD;&#xA;&#x9;&#x9;c0.134,0.113,0.262,0.224,0.384,0.324c0.077,0.065,0.154,0.128,0.226,0.188c0.024,0.015,0.045,0.033,0.065,0.051&#xD;&#xA;&#x9;&#x9;c0.048,0.039,0.092,0.074,0.134,0.104c0.262,0.203,0.467,0.342,0.583,0.378c0.021,0.006,0.035,0.009,0.05,0.009&#xD;&#xA;&#x9;&#x9;c0.009,0,0.018,0,0.024-0.003h0.253l2.149,16.601c0.193,1.52,1.715,2.756,3.383,2.756h19.785v2.227h30.127v-7.509l1.79-14.074&#xD;&#xA;&#x9;&#x9;h23.78c0.006,0.003,0.015,0.003,0.024,0.003c0.101,0,0.33-0.151,0.633-0.387c0.042-0.029,0.086-0.064,0.134-0.104&#xD;&#xA;&#x9;&#x9;c0.021-0.018,0.042-0.036,0.065-0.051c0.071-0.06,0.149-0.122,0.226-0.188c0.351-0.291,0.75-0.639,1.142-0.978&#xD;&#xA;&#x9;&#x9;C141.107,87.783,142.064,86.974,142.064,87.277z"/>
  <linearGradient id="SVGID_19_" gradientUnits="userSpaceOnUse" x1="97.248" y1="78.7026" x2="97.248" y2="90.3511">
    <stop offset="0.1176" style="stop-color:#000000;stop-opacity:0.15"/>
    <stop offset="0.3953" style="stop-color:#000000;stop-opacity:0.0216"/>
    <stop offset="0.4419" style="stop-color:#000000;stop-opacity:0"/>
    <stop offset="0.4525" style="stop-color:#FFFFFF;stop-opacity:0"/>
    <stop offset="0.6772" style="stop-color:#FFFFFF;stop-opacity:0.25"/>
    <stop offset="0.8545" style="stop-color:#FFFFFF;stop-opacity:0.1213"/>
    <stop offset="0.8839" style="stop-color:#FFFFFF;stop-opacity:0.1"/>
    <stop offset="0.9457" style="stop-color:#000000;stop-opacity:0"/>
    <stop offset="1" style="stop-color:#000000;stop-opacity:0.25"/>
  </linearGradient>
  <path fill="url(#SVGID_19_)" d="M137.852,89.055c0,0.618,0,0.618,0,1.236c0,0.042,0.018,0.06,0.054,0.06h-23.804l1.136-8.945&#xD;&#xA;&#x9;&#x9;l0.113-0.886h22.615c0.675,0,4.1-2.311,4.1-1.722v5.327C142.064,84.762,137.852,88.437,137.852,89.055z M56.629,90.336v0.003&#xD;&#xA;&#x9;&#x9;c-0.003,0.006-0.009,0.009-0.015,0.012h0.253l-1.16-8.945l-0.164-1.27c-0.401-0.202-0.862-0.455-1.308-0.692&#xD;&#xA;&#x9;&#x9;c-0.068-0.039-0.137-0.074-0.205-0.11c-0.11-0.056-0.214-0.112-0.318-0.166c-0.104-0.054-0.202-0.104-0.298-0.152&#xD;&#xA;&#x9;&#x9;c-0.068-0.029-0.134-0.062-0.196-0.092c-0.041-0.018-0.083-0.036-0.122-0.054c-0.119-0.05-0.226-0.092-0.318-0.121&#xD;&#xA;&#x9;&#x9;c-0.027-0.01-0.051-0.016-0.074-0.021c-0.003-0.003-0.009-0.003-0.012-0.003c-0.027-0.009-0.05-0.012-0.074-0.015&#xD;&#xA;&#x9;&#x9;c-0.119-0.018-0.185,0.009-0.187,0.089v5.327c0,0.637,4.212,4.312,4.212,4.93c0,0.621,0,0.621,0,1.239&#xD;&#xA;&#x9;&#x9;C56.644,90.313,56.641,90.328,56.629,90.336z"/>
  <path fill="#006092" d="M56.629,90.336v0.003c-0.003,0.006-0.009,0.009-0.015,0.012H56.59&#xD;&#xA;&#x9;&#x9;C56.608,90.351,56.623,90.345,56.629,90.336z"/>
  <path fill="#006092" d="M56.629,90.336v0.003c-0.003,0.006-0.009,0.009-0.015,0.012H56.59&#xD;&#xA;&#x9;&#x9;C56.608,90.351,56.623,90.345,56.629,90.336z"/>
  <linearGradient id="SVGID_20_" gradientUnits="userSpaceOnUse" x1="82.1841" y1="108.1802" x2="112.3115" y2="108.1802">
    <stop offset="0" style="stop-color:#000000;stop-opacity:0.25"/>
    <stop offset="0.0362" style="stop-color:#000000;stop-opacity:0"/>
    <stop offset="0.9593" style="stop-color:#000000;stop-opacity:0"/>
    <stop offset="1" style="stop-color:#000000;stop-opacity:0.25"/>
  </linearGradient>
  <path fill="url(#SVGID_20_)" d="M112.312,104.425v7.509H82.184v-2.227h26.426c1.665,0,3.184-1.236,3.38-2.756L112.312,104.425z"/>
  <path fill="#006092" d="M56.629,90.336v0.003c-0.003,0.006-0.009,0.009-0.015,0.012H56.59&#xD;&#xA;&#x9;&#x9;C56.608,90.351,56.623,90.345,56.629,90.336z"/>
  <path fill="#006092" d="M56.629,90.336v0.003c-0.003,0.006-0.009,0.009-0.015,0.012H56.59&#xD;&#xA;&#x9;&#x9;C56.608,90.351,56.623,90.345,56.629,90.336z"/>
  <linearGradient id="SVGID_21_" gradientUnits="userSpaceOnUse" x1="85.5054" y1="41.5688" x2="85.5054" y2="109.7075">
    <stop offset="0" style="stop-color:#FFFFFF;stop-opacity:0.35"/>
    <stop offset="0.0422" style="stop-color:#FFFFFF;stop-opacity:0.2"/>
    <stop offset="0.4646" style="stop-color:#FFFFFF;stop-opacity:0.1"/>
    <stop offset="0.5234" style="stop-color:#000000;stop-opacity:0.25"/>
    <stop offset="0.9548" style="stop-color:#000000;stop-opacity:0.15"/>
    <stop offset="1" style="stop-color:#000000;stop-opacity:0.35"/>
  </linearGradient>
  <path fill="url(#SVGID_21_)" d="M115.617,72.879l-0.333-2.619l-1.174-9.225l-0.143-1.142l-0.625-4.905l-1.353-10.661&#xD;&#xA;&#x9;&#x9;c0-0.003,0-0.003,0-0.006c-0.023-0.154-0.057-0.306-0.104-0.448c-0.405-1.303-1.778-2.305-3.276-2.305H62.399&#xD;&#xA;&#x9;&#x9;c-1.498,0-2.875,1.002-3.276,2.305c-0.047,0.143-0.083,0.294-0.098,0.448c0,0.003,0,0.003,0,0.006l-1.329,10.661l-0.612,4.905&#xD;&#xA;&#x9;&#x9;l-0.143,1.142l-0.907,7.266l-0.237,1.918l-0.407,3.267c-0.152,1.201-0.182,3-0.09,4.45c0.024,0.384,0.057,0.743,0.099,1.062&#xD;&#xA;&#x9;&#x9;l0.146,1.139l0.164,1.27l1.16,8.945l2.149,16.601c0.193,1.52,1.715,2.756,3.383,2.756h46.211c1.665,0,3.184-1.236,3.38-2.756&#xD;&#xA;&#x9;&#x9;l0.321-2.526l1.79-14.074l1.136-8.945l0.113-0.886l0.268-2.123C115.811,76.878,115.811,74.399,115.617,72.879z M114.758,78.284&#xD;&#xA;&#x9;&#x9;l-0.282,2.236l-1.249,9.831l-0.916,7.212l-1.177,9.279c-0.143,1.082-1.296,2-2.524,2H62.399c-1.228,0-2.384-0.918-2.527-2&#xD;&#xA;&#x9;&#x9;l-2.134-16.491l-1.272-9.837l-0.211-1.627c-0.009-0.08-0.021-0.16-0.03-0.246v-0.003c-0.018-0.176-0.033-0.36-0.047-0.554&#xD;&#xA;&#x9;&#x9;c-0.015-0.192-0.027-0.398-0.036-0.605v-0.024c-0.009-0.175-0.015-0.356-0.018-0.538c-0.015-0.615-0.012-1.252,0.012-1.849&#xD;&#xA;&#x9;&#x9;c0.006-0.14,0.012-0.276,0.021-0.41c0.003-0.087,0.009-0.17,0.015-0.253c0.018-0.295,0.045-0.568,0.075-0.812l0.416-3.333&#xD;&#xA;&#x9;&#x9;L57.943,60l0.012-0.106l0.612-4.905l1.317-10.554c0.003-0.039,0.009-0.077,0.015-0.113c0-0.003,0-0.003,0.003-0.006&#xD;&#xA;&#x9;&#x9;c0.003-0.023,0.009-0.048,0.015-0.071c0.009-0.036,0.018-0.068,0.03-0.104c0.3-0.978,1.353-1.706,2.453-1.706h46.211&#xD;&#xA;&#x9;&#x9;c1.1,0,2.149,0.729,2.449,1.694c0.015,0.048,0.027,0.093,0.036,0.14c0.006,0.018,0.012,0.036,0.012,0.054&#xD;&#xA;&#x9;&#x9;c0.012,0.042,0.021,0.083,0.027,0.125l1.341,10.542l0.621,4.905L113.111,60l0.143,1.143l1.156,9.117l0.348,2.729&#xD;&#xA;&#x9;&#x9;C114.942,74.425,114.942,76.854,114.758,78.284z"/>
  <rect x="181.625" y="25.102" fill="#CCCCCC" width="2.277" height="64.475"/>
  <path fill="#CCCCCC" d="M216.902,53.326v8.027c0,0.653-0.535,1.188-1.189,1.188h-31.811c0-2.009,0-8.243,0-10.404h31.811&#xD;&#xA;&#x9;&#x9;C216.367,52.137,216.902,52.672,216.902,53.326z"/>
  <linearGradient id="SVGID_22_" gradientUnits="userSpaceOnUse" x1="200.4019" y1="52.1372" x2="200.4019" y2="62.5415">
    <stop offset="0.0123" style="stop-color:#000000;stop-opacity:0.2"/>
    <stop offset="0.0736" style="stop-color:#000000;stop-opacity:0"/>
    <stop offset="0.1227" style="stop-color:#000000;stop-opacity:0.4"/>
    <stop offset="0.1634" style="stop-color:#393939;stop-opacity:0.4596"/>
    <stop offset="0.2177" style="stop-color:#7F7F7F;stop-opacity:0.5389"/>
    <stop offset="0.2666" style="stop-color:#B6B6B6;stop-opacity:0.6105"/>
    <stop offset="0.3085" style="stop-color:#DEDEDE;stop-opacity:0.6718"/>
    <stop offset="0.3417" style="stop-color:#F6F6F6;stop-opacity:0.7203"/>
    <stop offset="0.362" style="stop-color:#FFFFFF;stop-opacity:0.75"/>
    <stop offset="0.4042" style="stop-color:#F6F6F6;stop-opacity:0.75"/>
    <stop offset="0.473" style="stop-color:#DEDEDE;stop-opacity:0.75"/>
    <stop offset="0.56" style="stop-color:#B6B6B6;stop-opacity:0.75"/>
    <stop offset="0.6617" style="stop-color:#7F7F7F;stop-opacity:0.75"/>
    <stop offset="0.7743" style="stop-color:#393939;stop-opacity:0.75"/>
    <stop offset="0.8589" style="stop-color:#000000;stop-opacity:0.75"/>
    <stop offset="0.9325" style="stop-color:#000000;stop-opacity:0.45"/>
    <stop offset="0.9755" style="stop-color:#000000;stop-opacity:0.75"/>
  </linearGradient>
  <path fill="url(#SVGID_22_)" d="M216.902,53.326v8.027c0,0.653-0.535,1.188-1.189,1.188h-31.811c0-2.009,0-8.243,0-10.404h31.811&#xD;&#xA;&#x9;&#x9;C216.367,52.137,216.902,52.672,216.902,53.326z"/>
  <linearGradient id="SVGID_23_" gradientUnits="userSpaceOnUse" x1="183.9023" y1="57.3394" x2="216.9019" y2="57.3394">
    <stop offset="0" style="stop-color:#000000;stop-opacity:0.35"/>
    <stop offset="0.1227" style="stop-color:#000000;stop-opacity:0.2"/>
    <stop offset="0.1709" style="stop-color:#000000;stop-opacity:0.1882"/>
    <stop offset="0.9397" style="stop-color:#000000;stop-opacity:0"/>
    <stop offset="0.9978" style="stop-color:#000000;stop-opacity:0.2891"/>
    <stop offset="1" style="stop-color:#000000;stop-opacity:0.3"/>
  </linearGradient>
  <path fill="url(#SVGID_23_)" d="M216.902,53.326v8.027c0,0.653-0.535,1.188-1.189,1.188h-31.811c0-2.009,0-8.243,0-10.404h31.811&#xD;&#xA;&#x9;&#x9;C216.367,52.137,216.902,52.672,216.902,53.326z"/>
  <linearGradient id="SVGID_24_" gradientUnits="userSpaceOnUse" x1="182.7637" y1="25.1021" x2="182.7637" y2="89.5771">
    <stop offset="0.0123" style="stop-color:#000000;stop-opacity:0.2"/>
    <stop offset="0.0736" style="stop-color:#000000;stop-opacity:0"/>
    <stop offset="0.1227" style="stop-color:#000000;stop-opacity:0.4"/>
    <stop offset="0.1634" style="stop-color:#393939;stop-opacity:0.4596"/>
    <stop offset="0.2177" style="stop-color:#7F7F7F;stop-opacity:0.5389"/>
    <stop offset="0.2666" style="stop-color:#B6B6B6;stop-opacity:0.6105"/>
    <stop offset="0.3085" style="stop-color:#DEDEDE;stop-opacity:0.6718"/>
    <stop offset="0.3417" style="stop-color:#F6F6F6;stop-opacity:0.7203"/>
    <stop offset="0.362" style="stop-color:#FFFFFF;stop-opacity:0.75"/>
    <stop offset="0.4042" style="stop-color:#F6F6F6;stop-opacity:0.75"/>
    <stop offset="0.473" style="stop-color:#DEDEDE;stop-opacity:0.75"/>
    <stop offset="0.56" style="stop-color:#B6B6B6;stop-opacity:0.75"/>
    <stop offset="0.6617" style="stop-color:#7F7F7F;stop-opacity:0.75"/>
    <stop offset="0.7743" style="stop-color:#393939;stop-opacity:0.75"/>
    <stop offset="0.8589" style="stop-color:#000000;stop-opacity:0.75"/>
    <stop offset="0.9325" style="stop-color:#000000;stop-opacity:0.45"/>
    <stop offset="0.9755" style="stop-color:#000000;stop-opacity:0.75"/>
  </linearGradient>
  <rect x="181.625" y="25.102" fill="url(#SVGID_24_)" width="2.277" height="64.475"/>
  <linearGradient id="SVGID_25_" gradientUnits="userSpaceOnUse" x1="97.248" y1="1" x2="97.248" y2="90.3545">
    <stop offset="0" style="stop-color:#FFFFFF;stop-opacity:0.15"/>
    <stop offset="1" style="stop-color:#000000;stop-opacity:0.25"/>
  </linearGradient>
  <path fill="url(#SVGID_25_)" d="M56.603,44.39c-0.006-0.009-0.018-0.018-0.033-0.023c-0.047-0.027-0.119-0.042-0.205-0.045h-0.157&#xD;&#xA;&#x9;&#x9;c-0.425,0.018-1.103,0.163-1.766,0.3c-0.146,0.03-0.289,0.06-0.431,0.09c-0.3,0.06-0.586,0.113-0.829,0.143&#xD;&#xA;&#x9;&#x9;c-0.021,0.003-0.042,0.006-0.063,0.006c-0.021,0.003-0.042,0.006-0.063,0.009c-0.03,0.003-0.06,0.003-0.089,0.006&#xD;&#xA;&#x9;&#x9;c-0.012,0-0.021,0.003-0.03,0.003h-0.035c-0.057,0.004-0.107,0.004-0.155,0c-0.021,0-0.041,0-0.059-0.003&#xD;&#xA;&#x9;&#x9;c-0.015-0.003-0.03-0.003-0.042-0.006c-0.03-0.003-0.06-0.009-0.083-0.018c-0.006-0.003-0.012-0.003-0.018-0.006&#xD;&#xA;&#x9;&#x9;c-0.009-0.003-0.015-0.006-0.023-0.012c-0.015-0.007-0.03-0.015-0.039-0.024c-0.009-0.009-0.018-0.015-0.023-0.023&#xD;&#xA;&#x9;&#x9;c-0.018-0.021-0.026-0.045-0.026-0.074v3.374c0-0.071,0.05-0.148,0.14-0.226c0.026-0.027,0.053-0.048,0.086-0.071&#xD;&#xA;&#x9;&#x9;c0.065-0.048,0.14-0.096,0.226-0.144c0.042-0.026,0.087-0.05,0.134-0.074c0.047-0.023,0.095-0.05,0.149-0.074&#xD;&#xA;&#x9;&#x9;c0.077-0.038,0.157-0.077,0.24-0.112c0.226-0.104,0.479-0.205,0.737-0.31c0.229-0.092,0.461-0.182,0.69-0.273&#xD;&#xA;&#x9;&#x9;c0.324-0.131,0.642-0.259,0.916-0.384c0.057-0.026,0.11-0.05,0.161-0.074c0.05-0.023,0.101-0.05,0.149-0.074&#xD;&#xA;&#x9;&#x9;c0.354-0.182,0.585-0.351,0.585-0.503c0-0.642,0-0.642,0-1.287C56.644,44.444,56.629,44.415,56.603,44.39z M52.432,84.125v3.151&#xD;&#xA;&#x9;&#x9;c0-0.059,0.038-0.077,0.106-0.056c0.021,0.002,0.042,0.012,0.063,0.023c0.045,0.021,0.098,0.051,0.161,0.089&#xD;&#xA;&#x9;&#x9;c0.03,0.019,0.063,0.039,0.095,0.063c0.375,0.256,0.945,0.743,1.534,1.252c0.11,0.095,0.22,0.19,0.327,0.282&#xD;&#xA;&#x9;&#x9;c0.146,0.125,0.291,0.25,0.431,0.371c0.134,0.113,0.262,0.224,0.384,0.324c0.077,0.065,0.154,0.128,0.226,0.188&#xD;&#xA;&#x9;&#x9;c0.024,0.015,0.045,0.033,0.065,0.051c0.045,0.035,0.089,0.071,0.134,0.104c0.262,0.203,0.467,0.342,0.583,0.378&#xD;&#xA;&#x9;&#x9;c0.021,0.006,0.035,0.009,0.05,0.009c0.009,0,0.018,0,0.024-0.003H56.59c0.018,0,0.033-0.006,0.039-0.015&#xD;&#xA;&#x9;&#x9;c0.012-0.009,0.015-0.023,0.015-0.042c0-0.618,0-0.618,0-1.239C56.644,88.437,52.432,84.762,52.432,84.125z M137.965,33.17&#xD;&#xA;&#x9;&#x9;c-0.073,0-0.114,0.027-0.114,0.089c0,0.633,0,0.633,0,1.263c0,0.633,4.214,2.879,4.214,3.53v-3.161&#xD;&#xA;&#x9;&#x9;C142.064,35.482,138.641,33.17,137.965,33.17z M137.906,22.743c-0.037,0-0.056,0.018-0.056,0.061c0,0.617,0,0.617,0,1.238&#xD;&#xA;&#x9;&#x9;c0,0.618,4.214,4.292,4.214,4.927v-3.148C142.064,26.415,138.401,22.743,137.906,22.743z M139.389,14.662&#xD;&#xA;&#x9;&#x9;c-0.734-0.914-1.368-1.675-1.509-1.675c-0.019,0-0.029,0.012-0.029,0.043c0,0.602,0,0.602,0,1.204c0,0.076,0.065,0.223,0.18,0.428&#xD;&#xA;&#x9;&#x9;c0.808,1.424,4.034,5.542,4.034,6.085V17.7C142.064,18.067,140.593,16.16,139.389,14.662z M140.625,9.979&#xD;&#xA;&#x9;&#x9;c-0.57-1.009-1.213-2.17-1.735-3.087c-0.533-0.933-0.942-1.608-1.023-1.608c-0.011,0-0.016,0.01-0.016,0.031&#xD;&#xA;&#x9;&#x9;c0,0.581,0,0.581,0,1.162c0,0.064,0.052,0.208,0.146,0.416c0.28,0.623,0.934,1.815,1.637,3.087&#xD;&#xA;&#x9;&#x9;c0.577,1.042,1.189,2.134,1.653,3.008c0.461,0.865,0.778,1.51,0.778,1.675v-2.406C142.064,12.492,141.415,11.382,140.625,9.979z&#xD;&#xA;&#x9;&#x9; M141.559,7.486c-0.205-0.351-0.461-0.805-0.742-1.311C139.626,4.039,137.994,1,137.859,1c-0.005,0-0.009,0.004-0.009,0.017&#xD;&#xA;&#x9;&#x9;c0,0.454,0,0.454,0,0.905c0,0.235,1.135,2.276,2.227,4.253c0.248,0.446,0.493,0.892,0.722,1.311&#xD;&#xA;&#x9;&#x9;c0.708,1.294,1.265,2.348,1.265,2.518V8.211C142.064,8.311,141.867,8.012,141.559,7.486z M52.432,34.891v3.161&#xD;&#xA;&#x9;&#x9;c0-0.651,4.213-2.897,4.213-3.53c0-0.63,0-0.63,0-1.263c0-0.062-0.042-0.089-0.115-0.089C55.855,33.17,52.432,35.482,52.432,34.891&#xD;&#xA;&#x9;&#x9;z M52.432,25.821v3.148c0-0.636,4.213-4.31,4.213-4.927c0-0.621,0-0.621,0-1.238c0-0.043-0.019-0.061-0.055-0.061&#xD;&#xA;&#x9;&#x9;C56.094,22.743,52.432,26.415,52.432,25.821z M52.432,17.7v3.048c0-0.544,3.226-4.661,4.033-6.085&#xD;&#xA;&#x9;&#x9;c0.114-0.205,0.18-0.352,0.18-0.428c0-0.602,0-0.602,0-1.204c0-0.031-0.01-0.043-0.029-0.043c-0.141,0-0.775,0.761-1.509,1.675&#xD;&#xA;&#x9;&#x9;C53.902,16.16,52.432,18.067,52.432,17.7z M52.432,12.256v2.406c0-0.165,0.316-0.81,0.778-1.675&#xD;&#xA;&#x9;&#x9;c0.464-0.874,1.076-1.965,1.653-3.008c0.703-1.271,1.356-2.464,1.637-3.087c0.093-0.208,0.146-0.352,0.146-0.416&#xD;&#xA;&#x9;&#x9;c0-0.581,0-0.581,0-1.162c0-0.021-0.005-0.031-0.015-0.031c-0.082,0-0.49,0.676-1.024,1.608c-0.521,0.917-1.164,2.078-1.734,3.087&#xD;&#xA;&#x9;&#x9;C53.081,11.382,52.432,12.492,52.432,12.256z M52.432,8.211v1.792c0-0.17,0.556-1.224,1.265-2.518&#xD;&#xA;&#x9;&#x9;c0.229-0.419,0.475-0.865,0.722-1.311c1.092-1.977,2.227-4.018,2.227-4.253c0-0.451,0-0.451,0-0.905&#xD;&#xA;&#x9;&#x9;C56.645,1.004,56.642,1,56.636,1c-0.135,0-1.767,3.039-2.958,5.175c-0.281,0.506-0.537,0.96-0.741,1.311&#xD;&#xA;&#x9;&#x9;C52.629,8.012,52.432,8.311,52.432,8.211z M138.289,44.321h-0.158c-0.177,0.01-0.28,0.058-0.28,0.158c0,0.646,0,0.646,0,1.287&#xD;&#xA;&#x9;&#x9;c0,0.643,4.214,1.657,4.214,2.32v-3.377C142.064,45.241,139.366,44.364,138.289,44.321z M142.064,87.276v-3.148&#xD;&#xA;&#x9;&#x9;c0,0.636-4.214,4.311-4.214,4.928c0,0.621,0,0.621,0,1.238c0,0.042,0.019,0.061,0.056,0.061&#xD;&#xA;&#x9;&#x9;C138.401,90.354,142.064,86.682,142.064,87.276z"/>
  <linearGradient id="SVGID_26_" gradientUnits="userSpaceOnUse" x1="97.248" y1="87.2124" x2="97.248" y2="117.4341">
    <stop offset="0" style="stop-color:#000000;stop-opacity:0.2"/>
    <stop offset="0.8145" style="stop-color:#000000;stop-opacity:0.25"/>
    <stop offset="0.8205" style="stop-color:#FFFFFF;stop-opacity:0.1"/>
    <stop offset="0.8311" style="stop-color:#FFFFFF;stop-opacity:0.35"/>
    <stop offset="0.8763" style="stop-color:#FFFFFF;stop-opacity:0.1"/>
    <stop offset="0.9593" style="stop-color:#000000;stop-opacity:0.1"/>
    <stop offset="0.9819" style="stop-color:#000000;stop-opacity:0.25"/>
    <stop offset="1" style="stop-color:#000000;stop-opacity:0.45"/>
  </linearGradient>
  <path fill="url(#SVGID_26_)" d="M142.064,87.277v30.157H52.432V87.277c0-0.059,0.038-0.077,0.106-0.056&#xD;&#xA;&#x9;&#x9;c0.021,0.002,0.042,0.012,0.063,0.023c0.045,0.021,0.098,0.051,0.161,0.089c0.03,0.019,0.063,0.039,0.095,0.063&#xD;&#xA;&#x9;&#x9;c0.375,0.256,0.945,0.743,1.534,1.252c0.11,0.095,0.22,0.19,0.327,0.282c0.146,0.128,0.291,0.253,0.431,0.371&#xD;&#xA;&#x9;&#x9;c0.134,0.113,0.262,0.224,0.384,0.324c0.077,0.065,0.154,0.128,0.226,0.188c0.024,0.015,0.045,0.033,0.065,0.051&#xD;&#xA;&#x9;&#x9;c0.048,0.039,0.092,0.074,0.134,0.104c0.262,0.203,0.467,0.342,0.583,0.378c0.021,0.006,0.035,0.009,0.05,0.009&#xD;&#xA;&#x9;&#x9;c0.009,0,0.018,0,0.024-0.003h0.253l2.149,16.601c0.193,1.52,1.715,2.756,3.383,2.756h19.785v2.227h30.127v-7.509l1.79-14.074&#xD;&#xA;&#x9;&#x9;h23.78c0.006,0.003,0.015,0.003,0.024,0.003c0.101,0,0.33-0.151,0.633-0.387c0.042-0.029,0.086-0.064,0.134-0.104&#xD;&#xA;&#x9;&#x9;c0.021-0.018,0.042-0.036,0.065-0.051c0.071-0.06,0.149-0.122,0.226-0.188c0.351-0.291,0.75-0.639,1.142-0.978&#xD;&#xA;&#x9;&#x9;C141.107,87.783,142.064,86.974,142.064,87.277z"/>
  <path fill="#4D4D4D" d="M56.076,90.057h-0.042v-0.03C56.049,90.04,56.064,90.047,56.076,90.057z"/>
  <path fill="#4D4D4D" d="M55.797,70.219h-0.143l-0.05-0.03c0.018,0.003,0.032,0.006,0.05,0.009&#xD;&#xA;&#x9;&#x9;C55.701,70.207,55.749,70.213,55.797,70.219z"/>
  <linearGradient id="SVGID_27_" gradientUnits="userSpaceOnUse" x1="97.248" y1="34.9897" x2="97.248" y2="40.8823">
    <stop offset="0" style="stop-color:#000000;stop-opacity:0.1"/>
    <stop offset="1" style="stop-color:#000000;stop-opacity:0.15"/>
  </linearGradient>
  <path fill="url(#SVGID_27_)" d="M142.064,38.504c0,0.692-3.684,2.378-3.684,2.378H56.115c0,0-3.683-1.686-3.683-2.378l0.032-0.565&#xD;&#xA;&#x9;&#x9;c0.318-0.624,2.887-2.099,3.832-2.949h81.903c0.945,0.851,3.514,2.325,3.832,2.949L142.064,38.504z"/>
  <linearGradient id="SVGID_28_" gradientUnits="userSpaceOnUse" x1="97.248" y1="54.9888" x2="97.248" y2="80.52">
    <stop offset="0" style="stop-color:#FFFFFF;stop-opacity:0"/>
    <stop offset="0.902" style="stop-color:#000000;stop-opacity:0.15"/>
  </linearGradient>
  <path fill="url(#SVGID_28_)" d="M142.064,54.989v23.813c0-0.592-3.425,1.719-4.1,1.719H115.35l0.268-2.123&#xD;&#xA;&#x9;&#x9;c0.193-1.519,0.193-3.998,0-5.518l-0.333-2.619l-1.174-9.225l-0.143-1.142l-0.625-4.905H142.064z M52.432,78.798&#xD;&#xA;&#x9;&#x9;c0.002-0.08,0.068-0.106,0.187-0.089c0.024,0.003,0.047,0.006,0.074,0.015c0.003,0,0.009,0,0.012,0.003&#xD;&#xA;&#x9;&#x9;c0.023,0.006,0.047,0.012,0.074,0.021c0.092,0.029,0.199,0.071,0.318,0.121c0.039,0.018,0.081,0.036,0.122,0.054&#xD;&#xA;&#x9;&#x9;c0.063,0.03,0.128,0.063,0.196,0.092c0.096,0.048,0.193,0.099,0.298,0.152c0.104,0.054,0.208,0.11,0.318,0.166&#xD;&#xA;&#x9;&#x9;c0.068,0.036,0.137,0.071,0.205,0.11c0.446,0.237,0.907,0.49,1.308,0.692l-0.146-1.139c-0.042-0.318-0.074-0.678-0.099-1.062&#xD;&#xA;&#x9;&#x9;c-0.092-1.45-0.062-3.249,0.09-4.45l0.407-3.267l0.237-1.918l0.907-7.266l0.143-1.142l0.612-4.905h-5.265V78.798z"/>
  <linearGradient id="SVGID_29_" gradientUnits="userSpaceOnUse" x1="138.2993" y1="56.1685" x2="138.2993" y2="56.2671">
    <stop offset="0" style="stop-color:#FFFFFF;stop-opacity:0.15"/>
    <stop offset="1" style="stop-color:#000000;stop-opacity:0.25"/>
  </linearGradient>
  <path fill="url(#SVGID_29_)" d="M138.182,56.267c0.068-0.033,0.148-0.065,0.235-0.099C138.33,56.199,138.253,56.231,138.182,56.267&#xD;&#xA;&#x9;&#x9;z"/>
  <linearGradient id="SVGID_30_" gradientUnits="userSpaceOnUse" x1="85.5054" y1="42.4341" x2="85.5054" y2="108.8423">
    <stop offset="0" style="stop-color:#FFFFFF;stop-opacity:0.1"/>
    <stop offset="0.0475" style="stop-color:#EAEAEA;stop-opacity:0.1"/>
    <stop offset="0.1999" style="stop-color:#ADADAD;stop-opacity:0.1"/>
    <stop offset="0.3512" style="stop-color:#787878;stop-opacity:0.1"/>
    <stop offset="0.4978" style="stop-color:#4D4D4D;stop-opacity:0.1"/>
    <stop offset="0.6387" style="stop-color:#2C2C2C;stop-opacity:0.1"/>
    <stop offset="0.7725" style="stop-color:#131313;stop-opacity:0.1"/>
    <stop offset="0.8961" style="stop-color:#050505;stop-opacity:0.1"/>
    <stop offset="1" style="stop-color:#000000;stop-opacity:0.1"/>
  </linearGradient>
  <path fill="url(#SVGID_30_)" d="M114.758,72.99l-0.348-2.729l-0.229-1.793l-0.928-7.324L113.111,60l-0.015-0.106l-0.621-4.905&#xD;&#xA;&#x9;&#x9;l-1.341-10.542c-0.006-0.042-0.015-0.083-0.027-0.125c0-0.018-0.006-0.036-0.012-0.054c-0.009-0.047-0.021-0.092-0.036-0.14&#xD;&#xA;&#x9;&#x9;c-0.3-0.966-1.35-1.694-2.449-1.694H62.399c-1.1,0-2.152,0.729-2.453,1.706c-0.012,0.036-0.021,0.068-0.03,0.104&#xD;&#xA;&#x9;&#x9;c-0.006,0.023-0.012,0.048-0.015,0.071c-0.003,0.003-0.003,0.003-0.003,0.006c-0.006,0.036-0.012,0.074-0.015,0.113l-1.317,10.554&#xD;&#xA;&#x9;&#x9;l-0.612,4.905L57.943,60l-1.067,8.535l-0.214,1.725l-0.416,3.333c-0.03,0.243-0.057,0.517-0.075,0.812&#xD;&#xA;&#x9;&#x9;c-0.006,0.083-0.012,0.166-0.015,0.253c-0.009,0.134-0.015,0.271-0.021,0.41c-0.024,0.597-0.027,1.233-0.012,1.849&#xD;&#xA;&#x9;&#x9;c0.003,0.182,0.012,0.363,0.018,0.538v0.024c0.012,0.207,0.021,0.41,0.036,0.605c0.015,0.193,0.03,0.378,0.047,0.554v0.003&#xD;&#xA;&#x9;&#x9;c0.009,0.086,0.021,0.166,0.03,0.246l0.211,1.627l0.419,3.234l0.854,6.603l2.134,16.491c0.143,1.082,1.3,2,2.527,2h46.211&#xD;&#xA;&#x9;&#x9;c1.228,0,2.381-0.918,2.524-2l1.177-9.279l0.916-7.212l0.824-6.478l0.425-3.354l0.282-2.236&#xD;&#xA;&#x9;&#x9;C114.942,76.854,114.942,74.425,114.758,72.99z M61.303,79.491c-1.853,0-3.351-1.498-3.351-3.35c0-1.853,1.498-3.351,3.351-3.351&#xD;&#xA;&#x9;&#x9;c0.318,0,0.624,0.044,0.915,0.128c1.406,0.395,2.435,1.688,2.435,3.223c0,1.533-1.029,2.827-2.435,3.223&#xD;&#xA;&#x9;&#x9;C61.927,79.447,61.621,79.491,61.303,79.491z M109.969,90.354v15.613c0,0.455-0.169,0.881-0.464,1.217&#xD;&#xA;&#x9;&#x9;c-0.393,0.464-1.008,0.767-1.7,0.767H63.49c-0.559,0-1.073-0.193-1.453-0.523c-0.438-0.359-0.711-0.883-0.711-1.46V90.354&#xD;&#xA;&#x9;&#x9;c0-1.103-0.036-2.042,0-2.896c0.048-1.13,0.217-2.107,0.758-3.098c0.363-0.675,0.901-1.355,1.682-2.096&#xD;&#xA;&#x9;&#x9;c0.321-0.307,0.687-0.621,1.098-0.951c3.799-3.045,2.616-7.635-0.155-10.376c-0.14-0.14-0.282-0.273-0.431-0.401&#xD;&#xA;&#x9;&#x9;c-1.124-0.98-1.819-1.811-2.25-2.625c-0.666-1.255-0.702-2.477-0.702-4.155v-19.09c0-0.547,0.247-1.049,0.645-1.409&#xD;&#xA;&#x9;&#x9;c0.047-0.044,0.098-0.086,0.149-0.125c0.375-0.282,0.853-0.448,1.37-0.448h44.314c0.517,0,0.996,0.169,1.367,0.448&#xD;&#xA;&#x9;&#x9;c0.128,0.099,0.244,0.208,0.342,0.327c0.286,0.333,0.455,0.752,0.455,1.207v18.637c0,1.915-0.012,3.238-0.755,4.603&#xD;&#xA;&#x9;&#x9;c-0.446,0.817-1.153,1.65-2.28,2.631c-0.074,0.065-0.148,0.131-0.22,0.199c-2.919,2.712-4.263,7.456-0.366,10.578&#xD;&#xA;&#x9;&#x9;c0.518,0.413,0.96,0.806,1.341,1.183c0.663,0.654,1.133,1.267,1.469,1.87c0.615,1.104,0.776,2.19,0.812,3.493&#xD;&#xA;&#x9;&#x9;C109.989,88.606,109.969,89.42,109.969,90.354z M109.909,79.491c-0.288,0-0.567-0.035-0.832-0.104&#xD;&#xA;&#x9;&#x9;c-1.448-0.369-2.519-1.683-2.519-3.246c0-1.564,1.07-2.878,2.519-3.247c0.265-0.068,0.544-0.104,0.832-0.104&#xD;&#xA;&#x9;&#x9;c1.853,0,3.351,1.498,3.351,3.351C113.26,77.993,111.762,79.491,109.909,79.491z"/>
  <linearGradient id="SVGID_31_" gradientUnits="userSpaceOnUse" x1="85.7427" y1="42.6841" x2="85.7427" y2="107.9507">
    <stop offset="0" style="stop-color:#FFFFFF;stop-opacity:0.05"/>
    <stop offset="0.001" style="stop-color:#FFFFFF;stop-opacity:0.0577"/>
    <stop offset="0.0271" style="stop-color:#FFFFFF;stop-opacity:0.25"/>
    <stop offset="0.0354" style="stop-color:#FFFFFF;stop-opacity:0.2386"/>
    <stop offset="0.0995" style="stop-color:#FFFFFF;stop-opacity:0.15"/>
    <stop offset="0.2308" style="stop-color:#FFFFFF;stop-opacity:0.25"/>
    <stop offset="0.2405" style="stop-color:#E3E3E3;stop-opacity:0.2414"/>
    <stop offset="0.2697" style="stop-color:#939393;stop-opacity:0.2156"/>
    <stop offset="0.2957" style="stop-color:#545454;stop-opacity:0.1926"/>
    <stop offset="0.3175" style="stop-color:#272727;stop-opacity:0.1734"/>
    <stop offset="0.3342" style="stop-color:#0A0A0A;stop-opacity:0.1586"/>
    <stop offset="0.3439" style="stop-color:#000000;stop-opacity:0.15"/>
    <stop offset="0.6697" style="stop-color:#000000;stop-opacity:0.1"/>
    <stop offset="0.9623" style="stop-color:#000000;stop-opacity:0.2"/>
    <stop offset="1" style="stop-color:#000000;stop-opacity:0.35"/>
  </linearGradient>
  <path fill="url(#SVGID_31_)" d="M108.503,92.04c0.443,5.185,0.297,11.089,1.002,15.145c-0.393,0.464-1.008,0.767-1.7,0.767H63.49&#xD;&#xA;&#x9;&#x9;c-0.559,0-1.073-0.193-1.453-0.523c0.787-4.533,0.538-11.196,1.04-17.076c0.063-0.731,0.128-1.466,0.19-2.2&#xD;&#xA;&#x9;&#x9;c0.354-3.938,1.13-4.013,2.25-5.359c1.995-1.531,3.279-3.942,3.279-6.65c0-2.02-0.713-3.871-1.902-5.322&#xD;&#xA;&#x9;&#x9;c-0.006-0.006-0.009-0.012-0.012-0.015c-0.224-0.268-0.461-0.523-0.714-0.764c-1.043-1.329-1.076-2.655-1.076-3.983v-0.021&#xD;&#xA;&#x9;&#x9;c0.179-2.342,0.285-3.903,0.285-4.334c0-0.164-0.018-0.39-0.05-0.666c-0.036-0.315-0.095-0.702-0.172-1.142&#xD;&#xA;&#x9;&#x9;c-0.214-1.267-0.276-2.991-0.705-4.905c-0.764-3.434-0.966-8.666-2.479-11.731c0.047-0.044,0.098-0.086,0.149-0.125&#xD;&#xA;&#x9;&#x9;c0.375-0.282,0.853-0.448,1.37-0.448h44.314c0.517,0,0.996,0.169,1.367,0.448c0.128,0.099,0.244,0.208,0.342,0.327&#xD;&#xA;&#x9;&#x9;c-0.88,1.787-1.025,5.075-1.528,7.186c-0.125,0.529-0.25,1.056-0.372,1.582c-0.22,0.942-0.431,1.873-0.63,2.762&#xD;&#xA;&#x9;&#x9;c-0.425,1.914-0.488,3.639-0.708,4.905c-0.074,0.439-0.134,0.826-0.172,1.142c-0.033,0.276-0.047,0.502-0.047,0.666&#xD;&#xA;&#x9;&#x9;c0,0.416,0.101,1.908,0.271,4.146c0.003,0.033,0.006,0.066,0.006,0.099c0.131,2.164-0.689,3.038-2.004,4.857&#xD;&#xA;&#x9;&#x9;c-0.003,0.003-0.003,0.006-0.009,0.009c-1.189,1.451-1.906,3.307-1.906,5.328c0,2.708,1.285,5.119,3.279,6.65&#xD;&#xA;&#x9;&#x9;c0.006,0.006,0.012,0.012,0.018,0.015c1.596,1.364,2.131,1.902,2.432,5.033c0.009,0.101,0.018,0.205,0.026,0.312&#xD;&#xA;&#x9;&#x9;c0.018,0.199,0.033,0.398,0.051,0.598c0.045,0.535,0.092,1.07,0.137,1.603c0,0.003,0,0.003,0,0.003&#xD;&#xA;&#x9;&#x9;c0.003,0.016,0.003,0.029,0.003,0.042C108.411,90.946,108.456,91.493,108.503,92.04z"/>
  <g>
    <linearGradient id="SVGID_32_" gradientUnits="userSpaceOnUse" x1="65.0615" y1="43.2573" x2="65.0615" y2="107.4272">
      <stop offset="0" style="stop-color:#000000;stop-opacity:0.25"/>
      <stop offset="0.3017" style="stop-color:#000000;stop-opacity:0.2349"/>
      <stop offset="0.4223" style="stop-color:#000000;stop-opacity:0.35"/>
      <stop offset="0.453" style="stop-color:#030303;stop-opacity:0.327"/>
      <stop offset="0.4763" style="stop-color:#0D0D0D;stop-opacity:0.3095"/>
      <stop offset="0.4971" style="stop-color:#1D1D1D;stop-opacity:0.2939"/>
      <stop offset="0.5165" style="stop-color:#343434;stop-opacity:0.2794"/>
      <stop offset="0.5349" style="stop-color:#525252;stop-opacity:0.2656"/>
      <stop offset="0.5526" style="stop-color:#767676;stop-opacity:0.2523"/>
      <stop offset="0.5696" style="stop-color:#A1A1A1;stop-opacity:0.2395"/>
      <stop offset="0.5858" style="stop-color:#D2D2D2;stop-opacity:0.2274"/>
      <stop offset="0.5988" style="stop-color:#FFFFFF;stop-opacity:0.2176"/>
      <stop offset="0.6863" style="stop-color:#000000;stop-opacity:0.2157"/>
      <stop offset="1" style="stop-color:#000000;stop-opacity:0.2"/>
    </linearGradient>
    <path fill="url(#SVGID_32_)" d="M68.797,76.141c0,2.708-1.284,5.119-3.279,6.65c-1.121,1.347-1.897,1.421-2.25,5.359&#xD;&#xA;&#x9;&#x9;&#x9;c-0.063,0.734-0.128,1.469-0.19,2.2c-0.502,5.88-0.253,12.543-1.04,17.076c-0.438-0.359-0.711-0.883-0.711-1.46V87.458&#xD;&#xA;&#x9;&#x9;&#x9;c0.048-1.13,0.217-2.107,0.758-3.098c0.363-0.675,0.901-1.355,1.682-2.096c0.321-0.307,0.687-0.621,1.098-0.951&#xD;&#xA;&#x9;&#x9;&#x9;c3.799-3.045,2.616-7.635-0.155-10.376c-0.14-0.14-0.282-0.273-0.431-0.401c-1.124-0.98-1.819-1.811-2.25-2.625&#xD;&#xA;&#x9;&#x9;&#x9;c-0.666-1.255-0.702-2.477-0.702-4.155v-19.09c0-0.547,0.247-1.049,0.645-1.409c1.513,3.065,1.715,8.298,2.479,11.731&#xD;&#xA;&#x9;&#x9;&#x9;c0.428,1.914,0.491,3.639,0.705,4.905c0.077,0.439,0.137,0.826,0.172,1.142c0.033,0.276,0.05,0.502,0.05,0.666&#xD;&#xA;&#x9;&#x9;&#x9;c0,0.431-0.106,1.992-0.285,4.334v0.021c0,1.328,0.033,2.654,1.076,3.983c0.196,0.256,0.434,0.511,0.714,0.764&#xD;&#xA;&#x9;&#x9;&#x9;c0.003,0.003,0.006,0.009,0.012,0.015C68.083,72.27,68.797,74.122,68.797,76.141z"/>
    <linearGradient id="SVGID_33_" gradientUnits="userSpaceOnUse" x1="66.5259" y1="70.0405" x2="66.5259" y2="70.8042">
      <stop offset="0" style="stop-color:#000000;stop-opacity:0.25"/>
      <stop offset="0.3017" style="stop-color:#000000;stop-opacity:0.2349"/>
      <stop offset="0.4223" style="stop-color:#000000;stop-opacity:0.35"/>
      <stop offset="0.453" style="stop-color:#030303;stop-opacity:0.327"/>
      <stop offset="0.4763" style="stop-color:#0D0D0D;stop-opacity:0.3095"/>
      <stop offset="0.4971" style="stop-color:#1D1D1D;stop-opacity:0.2939"/>
      <stop offset="0.5165" style="stop-color:#343434;stop-opacity:0.2794"/>
      <stop offset="0.5349" style="stop-color:#525252;stop-opacity:0.2656"/>
      <stop offset="0.5526" style="stop-color:#767676;stop-opacity:0.2523"/>
      <stop offset="0.5696" style="stop-color:#A1A1A1;stop-opacity:0.2395"/>
      <stop offset="0.5858" style="stop-color:#D2D2D2;stop-opacity:0.2274"/>
      <stop offset="0.5988" style="stop-color:#FFFFFF;stop-opacity:0.2176"/>
      <stop offset="0.6863" style="stop-color:#000000;stop-opacity:0.2157"/>
      <stop offset="1" style="stop-color:#000000;stop-opacity:0.2"/>
    </linearGradient>
    <path fill="url(#SVGID_33_)" d="M66.883,70.804c-0.28-0.253-0.518-0.508-0.714-0.764C66.422,70.281,66.659,70.537,66.883,70.804z"/>
    <linearGradient id="SVGID_34_" gradientUnits="userSpaceOnUse" x1="106.1919" y1="43.4595" x2="106.1919" y2="107.1841">
      <stop offset="0" style="stop-color:#000000;stop-opacity:0.25"/>
      <stop offset="0.3017" style="stop-color:#000000;stop-opacity:0.2349"/>
      <stop offset="0.4223" style="stop-color:#000000;stop-opacity:0.35"/>
      <stop offset="0.453" style="stop-color:#030303;stop-opacity:0.327"/>
      <stop offset="0.4763" style="stop-color:#0D0D0D;stop-opacity:0.3095"/>
      <stop offset="0.4971" style="stop-color:#1D1D1D;stop-opacity:0.2939"/>
      <stop offset="0.5165" style="stop-color:#343434;stop-opacity:0.2794"/>
      <stop offset="0.5349" style="stop-color:#525252;stop-opacity:0.2656"/>
      <stop offset="0.5526" style="stop-color:#767676;stop-opacity:0.2523"/>
      <stop offset="0.5696" style="stop-color:#A1A1A1;stop-opacity:0.2395"/>
      <stop offset="0.5858" style="stop-color:#D2D2D2;stop-opacity:0.2274"/>
      <stop offset="0.5988" style="stop-color:#FFFFFF;stop-opacity:0.2176"/>
      <stop offset="0.6863" style="stop-color:#000000;stop-opacity:0.2157"/>
      <stop offset="1" style="stop-color:#000000;stop-opacity:0.2"/>
    </linearGradient>
    <path fill="url(#SVGID_34_)" d="M106.348,81.314c0.518,0.413,0.96,0.806,1.341,1.183c0.663,0.654,1.133,1.267,1.469,1.87&#xD;&#xA;&#x9;&#x9;&#x9;c0.615,1.104,0.776,2.19,0.812,3.493v18.107c0,0.455-0.169,0.881-0.464,1.217c-0.705-4.056-0.559-9.96-1.002-15.145&#xD;&#xA;&#x9;&#x9;&#x9;c-0.047-0.547-0.092-1.094-0.143-1.644c0-0.013,0-0.026-0.003-0.042c0,0,0,0,0-0.003c-0.044-0.532-0.092-1.067-0.137-1.603&#xD;&#xA;&#x9;&#x9;&#x9;c-0.018-0.199-0.033-0.398-0.051-0.598c-0.009-0.106-0.018-0.211-0.026-0.312c-0.3-3.131-0.835-3.669-2.432-5.033&#xD;&#xA;&#x9;&#x9;&#x9;c-0.006-0.003-0.012-0.009-0.018-0.015c-1.995-1.531-3.279-3.942-3.279-6.65c0-2.021,0.716-3.877,1.906-5.328&#xD;&#xA;&#x9;&#x9;&#x9;c0.006-0.003,0.006-0.006,0.009-0.009c1.314-1.819,2.135-2.693,2.004-4.857c0-0.032-0.003-0.065-0.006-0.099&#xD;&#xA;&#x9;&#x9;&#x9;c-0.169-2.238-0.271-3.73-0.271-4.146c0-0.164,0.015-0.39,0.047-0.666c0.039-0.315,0.098-0.702,0.172-1.142&#xD;&#xA;&#x9;&#x9;&#x9;c0.22-1.267,0.282-2.991,0.708-4.905c0.199-0.889,0.411-1.819,0.63-2.762c0.122-0.526,0.247-1.053,0.372-1.582&#xD;&#xA;&#x9;&#x9;&#x9;c0.502-2.11,0.648-5.398,1.528-7.186c0.286,0.333,0.455,0.752,0.455,1.207v18.637c0,1.915-0.012,3.238-0.755,4.603&#xD;&#xA;&#x9;&#x9;&#x9;c-0.446,0.817-1.153,1.65-2.28,2.631c-0.074,0.065-0.148,0.131-0.22,0.199C103.794,73.448,102.45,78.192,106.348,81.314z"/>
  </g>
  <g>
    <linearGradient id="SVGID_35_" gradientUnits="userSpaceOnUse" x1="109.9092" y1="72.7905" x2="109.9092" y2="79.4907">
      <stop offset="0" style="stop-color:#FFFFFF;stop-opacity:0.35"/>
      <stop offset="1" style="stop-color:#000000;stop-opacity:0.35"/>
    </linearGradient>
    <path fill="url(#SVGID_35_)" d="M109.909,72.791c-0.288,0-0.567,0.035-0.832,0.104c-1.448,0.369-2.519,1.683-2.519,3.247&#xD;&#xA;&#x9;&#x9;&#x9;c0,1.563,1.07,2.877,2.519,3.246c0.265,0.068,0.544,0.104,0.832,0.104c1.853,0,3.351-1.498,3.351-3.35&#xD;&#xA;&#x9;&#x9;&#x9;C113.26,74.289,111.762,72.791,109.909,72.791z M109.909,78.804c-0.291,0-0.57-0.047-0.832-0.13&#xD;&#xA;&#x9;&#x9;&#x9;c-1.064-0.352-1.832-1.354-1.832-2.533c0-1.181,0.767-2.186,1.832-2.533c0.262-0.086,0.541-0.134,0.832-0.134&#xD;&#xA;&#x9;&#x9;&#x9;c1.472,0,2.664,1.195,2.664,2.667C112.573,77.612,111.381,78.804,109.909,78.804z"/>
    <linearGradient id="SVGID_36_" gradientUnits="userSpaceOnUse" x1="61.3022" y1="72.7905" x2="61.3022" y2="79.4907">
      <stop offset="0" style="stop-color:#FFFFFF;stop-opacity:0.35"/>
      <stop offset="1" style="stop-color:#000000;stop-opacity:0.35"/>
    </linearGradient>
    <path fill="url(#SVGID_36_)" d="M62.218,72.918c-0.291-0.084-0.597-0.128-0.915-0.128c-1.853,0-3.351,1.498-3.351,3.351&#xD;&#xA;&#x9;&#x9;&#x9;c0,1.852,1.498,3.35,3.351,3.35c0.318,0,0.624-0.044,0.915-0.127c1.406-0.396,2.435-1.689,2.435-3.223&#xD;&#xA;&#x9;&#x9;&#x9;C64.653,74.607,63.624,73.313,62.218,72.918z M62.218,78.644c-0.285,0.104-0.594,0.16-0.915,0.16&#xD;&#xA;&#x9;&#x9;&#x9;c-1.472,0-2.664-1.192-2.664-2.663c0-1.472,1.192-2.667,2.664-2.667c0.321,0,0.63,0.057,0.915,0.163&#xD;&#xA;&#x9;&#x9;&#x9;c1.02,0.372,1.748,1.354,1.748,2.504S63.238,78.272,62.218,78.644z"/>
  </g>
  <g>
    <linearGradient id="SVGID_37_" gradientUnits="userSpaceOnUse" x1="109.9097" y1="78.8042" x2="109.9097" y2="73.4741">
      <stop offset="0" style="stop-color:#FFFFFF;stop-opacity:0.05"/>
      <stop offset="1" style="stop-color:#000000;stop-opacity:0.05"/>
    </linearGradient>
    <path fill="url(#SVGID_37_)" d="M112.573,76.141c0,1.471-1.192,2.663-2.664,2.663c-0.291,0-0.57-0.047-0.832-0.13&#xD;&#xA;&#x9;&#x9;&#x9;c-1.064-0.352-1.832-1.354-1.832-2.533c0-1.181,0.767-2.186,1.832-2.533c0.262-0.086,0.541-0.134,0.832-0.134&#xD;&#xA;&#x9;&#x9;&#x9;C111.381,73.474,112.573,74.669,112.573,76.141z"/>
    <linearGradient id="SVGID_38_" gradientUnits="userSpaceOnUse" x1="61.3022" y1="78.8042" x2="61.3022" y2="73.4741">
      <stop offset="0" style="stop-color:#FFFFFF;stop-opacity:0.05"/>
      <stop offset="1" style="stop-color:#000000;stop-opacity:0.05"/>
    </linearGradient>
    <path fill="url(#SVGID_38_)" d="M63.966,76.141c0,1.15-0.728,2.131-1.748,2.503c-0.285,0.104-0.594,0.16-0.915,0.16&#xD;&#xA;&#x9;&#x9;&#x9;c-1.472,0-2.664-1.192-2.664-2.663c0-1.472,1.192-2.667,2.664-2.667c0.321,0,0.63,0.057,0.915,0.163&#xD;&#xA;&#x9;&#x9;&#x9;C63.238,74.009,63.966,74.991,63.966,76.141z"/>
  </g>
  <linearGradient id="SVGID_39_" gradientUnits="userSpaceOnUse" x1="53.1182" y1="67.436" x2="138.1816" y2="67.436">
    <stop offset="0" style="stop-color:#000000;stop-opacity:0.25"/>
    <stop offset="0.0094" style="stop-color:#000000;stop-opacity:0.2147"/>
    <stop offset="0.0664" style="stop-color:#000000;stop-opacity:0"/>
    <stop offset="0.9065" style="stop-color:#000000;stop-opacity:0"/>
    <stop offset="0.9868" style="stop-color:#000000;stop-opacity:0.2147"/>
    <stop offset="1" style="stop-color:#000000;stop-opacity:0.25"/>
  </linearGradient>
  <path fill="url(#SVGID_39_)" d="M57.471,56.788l-0.387,3.106l-0.143,1.142l-0.907,7.266l-0.237,1.918l-0.407,3.267&#xD;&#xA;&#x9;&#x9;c-0.152,1.201-0.182,3-0.09,4.45c0.003,0.051,0.006,0.102,0.012,0.148H54.01c-0.49,0-0.892-0.4-0.892-0.892V57.679&#xD;&#xA;&#x9;&#x9;c0-0.491,0.401-0.892,0.892-0.892H57.471z M137.29,56.788h-23.718l0.396,3.106l0.143,1.142l1.174,9.225l0.333,2.619&#xD;&#xA;&#x9;&#x9;c0.182,1.418,0.193,3.675,0.036,5.205h21.637c0.49,0,0.892-0.4,0.892-0.892V57.679C138.182,57.188,137.78,56.788,137.29,56.788z"/>
  <linearGradient id="SVGID_40_" gradientUnits="userSpaceOnUse" x1="95.6499" y1="56.7876" x2="95.6499" y2="78.0845">
    <stop offset="0" style="stop-color:#FFFFFF;stop-opacity:0.25"/>
    <stop offset="0.0273" style="stop-color:#FFFFFF;stop-opacity:0.2147"/>
    <stop offset="0.1931" style="stop-color:#FFFFFF;stop-opacity:0"/>
    <stop offset="0.825" style="stop-color:#000000;stop-opacity:0"/>
    <stop offset="0.9753" style="stop-color:#000000;stop-opacity:0.2147"/>
    <stop offset="1" style="stop-color:#000000;stop-opacity:0.25"/>
  </linearGradient>
  <path fill="url(#SVGID_40_)" d="M57.471,56.788l-0.387,3.106l-0.143,1.142l-0.907,7.266l-0.237,1.918l-0.407,3.267&#xD;&#xA;&#x9;&#x9;c-0.152,1.201-0.182,3-0.09,4.45c0.003,0.051,0.006,0.102,0.012,0.148H54.01c-0.49,0-0.892-0.4-0.892-0.892V57.679&#xD;&#xA;&#x9;&#x9;c0-0.491,0.401-0.892,0.892-0.892H57.471z M137.29,56.788h-23.718l0.396,3.106l0.143,1.142l1.174,9.225l0.333,2.619&#xD;&#xA;&#x9;&#x9;c0.182,1.418,0.193,3.675,0.036,5.205h21.637c0.49,0,0.892-0.4,0.892-0.892V57.679C138.182,57.188,137.78,56.788,137.29,56.788z"/>
  <linearGradient id="SVGID_41_" gradientUnits="userSpaceOnUse" x1="156.7549" y1="46.8247" x2="156.7549" y2="67.938">
    <stop offset="0" style="stop-color:#FFFFFF;stop-opacity:0.15"/>
    <stop offset="0.085" style="stop-color:#F5F5F5;stop-opacity:0.1415"/>
    <stop offset="0.2282" style="stop-color:#DBDBDB;stop-opacity:0.1272"/>
    <stop offset="0.412" style="stop-color:#B0B0B0;stop-opacity:0.1088"/>
    <stop offset="0.6293" style="stop-color:#757575;stop-opacity:0.0871"/>
    <stop offset="0.872" style="stop-color:#2A2A2A;stop-opacity:0.0628"/>
    <stop offset="1" style="stop-color:#000000;stop-opacity:0.05"/>
  </linearGradient>
  <path fill="url(#SVGID_41_)" d="M165.699,49.245c-3.27-0.407-21.456-2.42-21.456-2.42v10.557v10.557c0,0,18.186-2.012,21.456-2.42&#xD;&#xA;&#x9;&#x9;c3.27-0.406,3.568-2.042,3.568-8.137C169.267,51.288,168.969,49.653,165.699,49.245z"/>
  <linearGradient id="SVGID_42_" gradientUnits="userSpaceOnUse" x1="144.2432" y1="57.3813" x2="169.2666" y2="57.3813">
    <stop offset="0.3816" style="stop-color:#000000;stop-opacity:0"/>
    <stop offset="0.9126" style="stop-color:#000000;stop-opacity:0.0859"/>
    <stop offset="1" style="stop-color:#000000;stop-opacity:0.1"/>
  </linearGradient>
  <path fill="url(#SVGID_42_)" d="M165.699,49.245c-3.27-0.407-21.456-2.42-21.456-2.42v10.557v10.557c0,0,18.186-2.012,21.456-2.42&#xD;&#xA;&#x9;&#x9;c3.27-0.406,3.568-2.042,3.568-8.137C169.267,51.288,168.969,49.653,165.699,49.245z"/>
  <linearGradient id="SVGID_43_" gradientUnits="userSpaceOnUse" x1="35.6162" y1="57.3403" x2="50.252" y2="57.3403">
    <stop offset="0" style="stop-color:#000000;stop-opacity:0.35"/>
    <stop offset="0.1294" style="stop-color:#000000;stop-opacity:0.3024"/>
    <stop offset="0.9517" style="stop-color:#000000;stop-opacity:0"/>
  </linearGradient>
  <polygon fill="url(#SVGID_43_)" points="50.252,9.881 50.252,104.799 35.616,103.265 35.616,11.415 &#x9;"/>
  <linearGradient id="SVGID_44_" gradientUnits="userSpaceOnUse" x1="1" y1="57.3286" x2="35.6162" y2="57.3286">
    <stop offset="0.095" style="stop-color:#000000;stop-opacity:0.25"/>
    <stop offset="0.2182" style="stop-color:#000000;stop-opacity:0.2149"/>
    <stop offset="0.9713" style="stop-color:#000000;stop-opacity:0"/>
    <stop offset="1" style="stop-color:#000000;stop-opacity:0.25"/>
  </linearGradient>
  <path fill="url(#SVGID_44_)" d="M35.616,5.285v104.09c0,0-17.373,3.648-23.914-0.22C5.162,105.291,1,102.103,1,57.34v-0.021&#xD;&#xA;&#x9;&#x9;C1,12.553,5.162,9.37,11.703,5.501C18.243,1.634,35.616,5.285,35.616,5.285z"/>
  <linearGradient id="SVGID_45_" gradientUnits="userSpaceOnUse" x1="26.9624" y1="64.6655" x2="26.9624" y2="50.0981">
    <stop offset="0" style="stop-color:#FFFFFF;stop-opacity:0.2"/>
    <stop offset="0.3922" style="stop-color:#FFFFFF;stop-opacity:0"/>
    <stop offset="0.6229" style="stop-color:#000000;stop-opacity:0"/>
    <stop offset="1" style="stop-color:#000000;stop-opacity:0.2"/>
  </linearGradient>
  <path fill="url(#SVGID_45_)" d="M35.616,50.098v14.567H25.592c-4.022,0-7.283-3.261-7.283-7.284c0-4.021,3.261-7.283,7.283-7.283&#xD;&#xA;&#x9;&#x9;H35.616z"/>
  <linearGradient id="SVGID_46_" gradientUnits="userSpaceOnUse" x1="18.3086" y1="57.3813" x2="35.6162" y2="57.3813">
    <stop offset="0" style="stop-color:#000000;stop-opacity:0.25"/>
    <stop offset="0.0825" style="stop-color:#000000;stop-opacity:0.2141"/>
    <stop offset="0.5747" style="stop-color:#000000;stop-opacity:0"/>
  </linearGradient>
  <path fill="url(#SVGID_46_)" d="M35.616,50.098v14.567H25.592c-4.022,0-7.283-3.261-7.283-7.284c0-4.021,3.261-7.283,7.283-7.283&#xD;&#xA;&#x9;&#x9;H35.616z"/>
  <g>
    <linearGradient id="SVGID_47_" gradientUnits="userSpaceOnUse" x1="29.6411" y1="54.0806" x2="29.6411" y2="60.7817">
      <stop offset="0" style="stop-color:#FFFFFF;stop-opacity:0.35"/>
      <stop offset="1" style="stop-color:#000000;stop-opacity:0.35"/>
    </linearGradient>
    <path fill="url(#SVGID_47_)" d="M29.641,54.081c-0.288,0-0.567,0.035-0.832,0.104c-1.448,0.369-2.518,1.683-2.518,3.246&#xD;&#xA;&#x9;&#x9;&#x9;c0,1.564,1.07,2.879,2.518,3.247c0.265,0.068,0.544,0.104,0.832,0.104c1.853,0,3.351-1.499,3.351-3.352&#xD;&#xA;&#x9;&#x9;&#x9;C32.991,55.579,31.493,54.081,29.641,54.081z M29.641,60.094c-0.291,0-0.57-0.047-0.832-0.131&#xD;&#xA;&#x9;&#x9;&#x9;c-1.064-0.351-1.831-1.353-1.831-2.533c0-1.18,0.767-2.185,1.831-2.532c0.262-0.087,0.541-0.134,0.832-0.134&#xD;&#xA;&#x9;&#x9;&#x9;c1.472,0,2.664,1.195,2.664,2.666C32.305,58.902,31.112,60.094,29.641,60.094z"/>
  </g>
  <g>
    <linearGradient id="SVGID_48_" gradientUnits="userSpaceOnUse" x1="29.6411" y1="60.0942" x2="29.6411" y2="54.7642">
      <stop offset="0" style="stop-color:#FFFFFF;stop-opacity:0.05"/>
      <stop offset="1" style="stop-color:#000000;stop-opacity:0.05"/>
    </linearGradient>
    <path fill="url(#SVGID_48_)" d="M32.305,57.43c0,1.472-1.192,2.664-2.664,2.664c-0.291,0-0.57-0.047-0.832-0.131&#xD;&#xA;&#x9;&#x9;&#x9;c-1.064-0.351-1.831-1.353-1.831-2.533c0-1.18,0.767-2.185,1.831-2.532c0.262-0.087,0.541-0.134,0.832-0.134&#xD;&#xA;&#x9;&#x9;&#x9;C31.112,54.764,32.305,55.959,32.305,57.43z"/>
  </g>
  <linearGradient id="SVGID_49_" gradientUnits="userSpaceOnUse" x1="97.2153" y1="46.2212" x2="97.2153" y2="117.4341">
    <stop offset="0" style="stop-color:#000000;stop-opacity:0.18"/>
    <stop offset="1" style="stop-color:#000000;stop-opacity:0.4"/>
  </linearGradient>
  <path fill="url(#SVGID_49_)" d="M138.951,51.602h-25.472l0.827,5.186c0,0-0.372,0.098-0.297,0.645&#xD;&#xA;&#x9;&#x9;c0.074,0.544,2.081,16.078,2.191,17.008c0.113,0.928,0.038,2.34,0,2.824c-0.036,0.482,0.8,0.82,0.8,0.82s-0.33,4.938-0.526,5.459&#xD;&#xA;&#x9;&#x9;c-0.199,0.52-1.355,4.388-1.725,5.396c-0.202,0.553-0.14,0.922-0.038,1.147h23.141v0.238c0,0.041,0.018,0.059,0.054,0.059&#xD;&#xA;&#x9;&#x9;c0.086,0,0.271-0.112,0.517-0.297h0.039L138.532,90c0.003,0,0.003,0,0.006-0.003c1.195-0.925,3.526-3.166,3.526-2.69v0.972&#xD;&#xA;&#x9;&#x9;c0,0.497-3.957,12.76-4.159,13.12c-0.202,0.359-0.339,0.564-1.953,0.564h-21.144l-1.136,9.971h-2.898l-1.412,5.5H61.647l-1.412-5.5&#xD;&#xA;&#x9;&#x9;h-2.898l-1.421-12.488c-1.183-3.568-3.484-10.789-3.484-11.167v-0.972c0-0.339,1.18,0.695,2.289,1.656l-0.003-0.033l1.397,1.127&#xD;&#xA;&#x9;&#x9;v-1.796c0,0-1.379-4.198-1.579-4.718c-0.196-0.521-0.526-5.459-0.526-5.459s0.835-0.338,0.8-0.82c-0.036-0.484-0.113-1.896,0-2.824&#xD;&#xA;&#x9;&#x9;c0.113-0.93,2.117-16.464,2.194-17.008c0.071-0.547-0.298-0.645-0.298-0.645l0.824-5.186h-2.051c-0.06,0-3.113-2.378-3.113-2.874&#xD;&#xA;&#x9;&#x9;c0-0.494,0-0.625,0-0.625l0.274-0.333h0.003c0.707-0.481,2.595-1.061,3.472-1.549h2.675l-1.094,8.768l-0.612,4.905l-0.143,1.142&#xD;&#xA;&#x9;&#x9;l-0.907,7.266l-0.237,1.918l-0.407,3.267c-0.152,1.201-0.182,3-0.09,4.45c0.024,0.384,0.057,0.743,0.099,1.062l0.146,1.139&#xD;&#xA;&#x9;&#x9;l0.164,1.27l1.16,8.945l2.149,16.601c0.193,1.52,1.715,2.756,3.383,2.756h46.211c1.665,0,3.184-1.236,3.38-2.756l0.321-2.526&#xD;&#xA;&#x9;&#x9;l1.79-14.074l1.136-8.945l0.113-0.886l0.268-2.123c0.193-1.519,0.193-3.998,0-5.518l-0.333-2.619l-1.174-9.225l-0.143-1.142&#xD;&#xA;&#x9;&#x9;l-0.625-4.905l-1.111-8.768h26.084c0.877,0.488,2.765,1.067,3.472,1.549h0.003l0.273,0.333c0,0,0,0.131,0,0.625&#xD;&#xA;&#x9;&#x9;C142.064,49.224,139.011,51.602,138.951,51.602z"/>
</svg>