<svg version="1.2" baseProfile="tiny" id="EdgeSVG_JQvDH" x="0px" y="0px" width="217.902px" height="118.434px" viewBox="0 0 217.902 118.434" xmlns:xlink="http://www.w3.org/1999/xlink" xmlns="http://www.w3.org/2000/svg">
  <linearGradient id="SVGID_1_" gradientUnits="userSpaceOnUse" x1="0" y1="59.2173" x2="217.9019" y2="59.2173">
    <stop offset="0" style="stop-color:#000000;stop-opacity:0.5"/>
    <stop offset="1" style="stop-color:#000000;stop-opacity:0.5"/>
  </linearGradient>
  <path fill="url(#SVGID_1_)" d="M51.432,118.434v-11.81c-0.016-0.366-0.234-0.825-1.18-0.825l-0.104-0.006l-13.531-1.418v5.811&#xD;&#xA;&#x9;&#x9;l-0.794,0.167c-0.307,0.064-7.603,1.58-14.593,1.58c-4.507,0-7.884-0.646-10.035-1.918C3.838,105.67,0,101.352,0,57.34&#xD;&#xA;&#x9;&#x9;c0-44.03,3.838-48.35,11.193-52.7c2.15-1.271,5.525-1.916,10.029-1.916c6.992,0,14.292,1.517,14.599,1.582l0.794,0.167v5.831&#xD;&#xA;&#x9;&#x9;l13.636-1.438c1.146,0,1.18-0.564,1.18-0.629c0,0,4.37-8.282,5.205-8.237c0,0,81.256,0,81.271,0c0.646,0,5.157,8.211,5.157,8.211&#xD;&#xA;&#x9;&#x9;c0.016,0.242,0.19,0.654,1.179,0.654c0,0,36.574,2.992,36.576,2.992c0.96,0,1.806,0.943,1.806,2.102v10.143h2.277v27.035h30.811&#xD;&#xA;&#x9;&#x9;c1.207,0,2.189,0.981,2.189,2.188v8.027c0,1.207-0.982,2.188-2.189,2.188h-30.811v27.035h-2.277v10.145&#xD;&#xA;&#x9;&#x9;c0,1.161-0.849,2.105-1.892,2.105l-36.409,2.97c-1.175,0.003-1.26,0.635-1.26,0.828v11.81H51.432z"/>
</svg>